HIERARCHY
ROOT Hips
{
  OFFSET 5.84602e-005 68.8428 3.50346
  CHANNELS 6 Xposition Yposition Zposition Zrotation Xrotation Yrotation
  JOINT Spine
  {
    OFFSET 0 8.597 -4.6522
    CHANNELS 3 Zrotation Xrotation Yrotation
    JOINT Spine1
    {
      OFFSET 0 7.8454 0.4098
      CHANNELS 3 Zrotation Xrotation Yrotation
      JOINT Spine2
      {
        OFFSET 0 9.7078 -2.1609
        CHANNELS 3 Zrotation Xrotation Yrotation
        JOINT Neck
        {
          OFFSET 0 21.8761 -0.4549
          CHANNELS 3 Zrotation Xrotation Yrotation
          JOINT Head
          {
            OFFSET 0 12.3537 3.3602
            CHANNELS 3 Zrotation Xrotation Yrotation
            End Site
            {
              OFFSET 0.0001 18.9506 0.5657
            }
          }
        }
        JOINT LeftShoulder
        {
          OFFSET 2.2086 21.1115 7.2329
          CHANNELS 3 Zrotation Xrotation Yrotation
          JOINT LeftArm
          {
            OFFSET 13.1193 3.0282 -4.8998
            CHANNELS 3 Zrotation Xrotation Yrotation
            JOINT LeftForeArm
            {
              OFFSET 27.4081 -0.0973053 -0.2375
              CHANNELS 3 Zrotation Xrotation Yrotation
              JOINT LeftHand
              {
                OFFSET 22.8641 0.0662994 -0.1369
                CHANNELS 3 Zrotation Xrotation Yrotation
                JOINT LeftHandIndex1
                {
                  OFFSET 8.8614 0.775009 2.4612
                  CHANNELS 3 Zrotation Xrotation Yrotation
                  JOINT LeftHandIndex2
                  {
                    OFFSET 3.3146 -0.808304 0.5841
                    CHANNELS 3 Zrotation Xrotation Yrotation
                    JOINT LeftHandIndex3
                    {
                      OFFSET 2.2628 -0.552002 0.3989
                      CHANNELS 3 Zrotation Xrotation Yrotation
                      End Site
                      {
                        OFFSET 1.6102 -0.4807 0.2612
                      }
                    }
                  }
                }
                JOINT LeftHandMiddle1
                {
                  OFFSET 8.9937 0.895004 0.2143
                  CHANNELS 3 Zrotation Xrotation Yrotation
                  JOINT LeftHandMiddle2
                  {
                    OFFSET 4.0984 0.0113983 -0.0242
                    CHANNELS 3 Zrotation Xrotation Yrotation
                    JOINT LeftHandMiddle3
                    {
                      OFFSET 2.2716 0.00689697 -0.0138001
                      CHANNELS 3 Zrotation Xrotation Yrotation
                      End Site
                      {
                        OFFSET 2.0404 -0.1441 0.0027
                      }
                    }
                  }
                }
                JOINT LeftHandRing1
                {
                  OFFSET 8.5234 0.597198 -2.0164
                  CHANNELS 3 Zrotation Xrotation Yrotation
                  JOINT LeftHandRing2
                  {
                    OFFSET 3.7188 -0.188293 -0.2328
                    CHANNELS 3 Zrotation Xrotation Yrotation
                    JOINT LeftHandRing3
                    {
                      OFFSET 2.1191 -0.106598 -0.1332
                      CHANNELS 3 Zrotation Xrotation Yrotation
                      End Site
                      {
                        OFFSET 1.8737 -0.2304 -0.0886
                      }
                    }
                  }
                }
                JOINT LeftHandPinky1
                {
                  OFFSET 7.9094 -0.601089 -3.4825
                  CHANNELS 3 Zrotation Xrotation Yrotation
                  JOINT LeftHandPinky2
                  {
                    OFFSET 2.2874 -0.477005 -0.6314
                    CHANNELS 3 Zrotation Xrotation Yrotation
                    JOINT LeftHandPinky3
                    {
                      OFFSET 1.6774 -0.349396 -0.4633
                      CHANNELS 3 Zrotation Xrotation Yrotation
                      End Site
                      {
                        OFFSET 1.4888 -0.4091 -0.3416
                      }
                    }
                  }
                }
                JOINT LeftHandThumb1
                {
                  OFFSET 1.833 -1.3875 1.3896
                  CHANNELS 3 Zrotation Xrotation Yrotation
                  JOINT LeftHandThumb2
                  {
                    OFFSET 3.4129 -1.121 2.5732
                    CHANNELS 3 Zrotation Xrotation Yrotation
                    JOINT LeftHandThumb3
                    {
                      OFFSET 2.2474 -0.804199 1.6192
                      CHANNELS 3 Zrotation Xrotation Yrotation
                      End Site
                      {
                        OFFSET 1.6527 -0.5689 1.1317
                      }
                    }
                  }
                }
              }
            }
          }
        }
        JOINT RightShoulder
        {
          OFFSET -2.2086 21.1115 7.2329
          CHANNELS 3 Zrotation Xrotation Yrotation
          JOINT RightArm
          {
            OFFSET -13.1216 3.0287 -4.9007
            CHANNELS 3 Zrotation Xrotation Yrotation
            JOINT RightForeArm
            {
              OFFSET -27.4081 -0.0973053 -0.2375
              CHANNELS 3 Zrotation Xrotation Yrotation
              JOINT RightHand
              {
                OFFSET -22.8641 0.0664063 -0.1369
                CHANNELS 3 Zrotation Xrotation Yrotation
                JOINT RightHandIndex1
                {
                  OFFSET -8.8614 0.774994 2.4612
                  CHANNELS 3 Zrotation Xrotation Yrotation
                  JOINT RightHandIndex2
                  {
                    OFFSET -3.3146 -0.808304 0.5841
                    CHANNELS 3 Zrotation Xrotation Yrotation
                    JOINT RightHandIndex3
                    {
                      OFFSET -2.2628 -0.552002 0.3989
                      CHANNELS 3 Zrotation Xrotation Yrotation
                      End Site
                      {
                        OFFSET -1.6102 -0.4807 0.2612
                      }
                    }
                  }
                }
                JOINT RightHandMiddle1
                {
                  OFFSET -8.9937 0.894989 0.2143
                  CHANNELS 3 Zrotation Xrotation Yrotation
                  JOINT RightHandMiddle2
                  {
                    OFFSET -4.0984 0.0113983 -0.0242
                    CHANNELS 3 Zrotation Xrotation Yrotation
                    JOINT RightHandMiddle3
                    {
                      OFFSET -2.2716 0.00691223 -0.0138001
                      CHANNELS 3 Zrotation Xrotation Yrotation
                      End Site
                      {
                        OFFSET -2.0404 -0.1441 0.0027
                      }
                    }
                  }
                }
                JOINT RightHandRing1
                {
                  OFFSET -8.5234 0.597198 -2.0164
                  CHANNELS 3 Zrotation Xrotation Yrotation
                  JOINT RightHandRing2
                  {
                    OFFSET -3.7188 -0.188309 -0.2328
                    CHANNELS 3 Zrotation Xrotation Yrotation
                    JOINT RightHandRing3
                    {
                      OFFSET -2.1191 -0.106598 -0.1332
                      CHANNELS 3 Zrotation Xrotation Yrotation
                      End Site
                      {
                        OFFSET -1.8737 -0.2304 -0.0886
                      }
                    }
                  }
                }
                JOINT RightHandPinky1
                {
                  OFFSET -7.9094 -0.601105 -3.4825
                  CHANNELS 3 Zrotation Xrotation Yrotation
                  JOINT RightHandPinky2
                  {
                    OFFSET -2.2874 -0.477005 -0.6314
                    CHANNELS 3 Zrotation Xrotation Yrotation
                    JOINT RightHandPinky3
                    {
                      OFFSET -1.6774 -0.349396 -0.4633
                      CHANNELS 3 Zrotation Xrotation Yrotation
                      End Site
                      {
                        OFFSET -1.4888 -0.4091 -0.3416
                      }
                    }
                  }
                }
                JOINT RightHandThumb1
                {
                  OFFSET -1.833 -1.38751 1.3896
                  CHANNELS 3 Zrotation Xrotation Yrotation
                  JOINT RightHandThumb2
                  {
                    OFFSET -3.41299 -1.12099 2.5732
                    CHANNELS 3 Zrotation Xrotation Yrotation
                    JOINT RightHandThumb3
                    {
                      OFFSET -2.24741 -0.804108 1.6192
                      CHANNELS 3 Zrotation Xrotation Yrotation
                      End Site
                      {
                        OFFSET -1.6527 -0.5689 1.1317
                      }
                    }
                  }
                }
              }
            }
          }
        }
      }
    }
  }
  JOINT RightUpLeg
  {
    OFFSET -9.1966 3.8861 -0.7581
    CHANNELS 3 Zrotation Xrotation Yrotation
    JOINT RightLeg
    {
      OFFSET -0.7359 -41.0265 0
      CHANNELS 3 Zrotation Xrotation Yrotation
      JOINT RightFoot
      {
        OFFSET 0 -40.2855 0
        CHANNELS 3 Zrotation Xrotation Yrotation
        JOINT RightToeBase
        {
          OFFSET 0 -5.6122 11.7359
          CHANNELS 3 Zrotation Xrotation Yrotation
          End Site
          {
            OFFSET 0 0 7.8731
          }
        }
      }
    }
  }
  JOINT LeftUpLeg
  {
    OFFSET 9.1965 3.8864 -0.7581
    CHANNELS 3 Zrotation Xrotation Yrotation
    JOINT LeftLeg
    {
      OFFSET 0.7359 -41.0268 0
      CHANNELS 3 Zrotation Xrotation Yrotation
      JOINT LeftFoot
      {
        OFFSET 0 -40.2855 0
        CHANNELS 3 Zrotation Xrotation Yrotation
        JOINT LeftToeBase
        {
          OFFSET 0 -5.6122 11.7359
          CHANNELS 3 Zrotation Xrotation Yrotation
          End Site
          {
            OFFSET 0 0 7.8731
          }
        }
      }
    }
  }
}
MOTION
Frames:	6
Frame Time:	0.0333333
5.84602e-005 68.8428 3.50346 0 0 -0 0 0 -0 0 0 -0 0 0 -0 0 0 -0 0 0 -0 0 0 -0 0 0 -0 0 0 -0 0 0 -0 0 0 -0 0 0 -0 0 0 -0 0 0 -0 -0.0146107 -8.87603e-005 -2.63497e-007 2.99804e-018 -2.42657e-020 -1.42182e-022 0 0 -0 -0.0187562 -0.001176 5.858e-005 5.06224e-018 3.88251e-019 1.21329e-020 0 0 -0 -0.012269 -0.00324817 0.000675346 -1.74678e-018 3.88251e-019 -0 0 0 -0 0 0 -0 0 0 -0 0 0 -0 0 0 -0 0 0 -0 0 0 -0 0 0 -0 0 0 -0 0 0 -0 0 0 -0 0.0149955 -9.10982e-005 2.64101e-007 -9.69331e-018 1.21329e-020 -4.7394e-023 0 0 -0 0.0189956 -0.00119102 -5.96516e-005 -5.41541e-019 0 2.42657e-020 0 0 -0 0.0122698 -0.00324857 -0.000673756 -2.00796e-019 0 -1.94126e-019 0 0 -0 0 0 -0 0 0 -0 3.39842 1.33031 -0.0637918 -5.65207e-008 0.834868 -0.000436188 -3.39935 -2.16518 -0.0642563 -8.89002e-024 -1.18485e-023 -1.48106e-024 -3.39844 1.35642 0.0640283 -3.18788e-007 0.782166 -0.000588827 3.39931 -2.13858 0.0634662 1.1399e-023 0 -0 
7.20948e-005 20.4698 7.17676 -0 -66.6681 -0 1.08834 0.282663 0.134236 2.17605 0.567805 0.263088 2.17605 0.567816 0.263086 0.00910897 1.71505 -0.480038 -2.35928e-007 23.115 1.34555e-007 -6.20068 -0.154039 -0.00738708 -5.11702 -7.41212 -27.4978 -44.5435 7.687 -52.1061 -32.6548 -2.39757e-006 -1.36307e-005 -3.25025e-006 1.00171e-006 6.17655e-007 -5.58371e-007 -7.10097e-007 -3.43459e-006 -1.83857e-006 1.47934e-007 4.05275e-007 -3.25025e-006 1.00171e-006 6.17655e-007 -0.0146141 -9.00806e-005 -2.20108e-007 -1.8386e-006 1.47883e-007 4.05296e-007 -3.25025e-006 1.00171e-006 6.17655e-007 -0.018784 -0.00117936 5.67145e-005 -1.83861e-006 1.47866e-007 4.05319e-007 -3.25025e-006 1.00171e-006 6.17655e-007 -0.0123346 -0.00326236 0.00068334 -1.83859e-006 1.47894e-007 4.05345e-007 -3.25025e-006 1.00171e-006 6.17655e-007 -5.58371e-007 -7.10097e-007 -3.43459e-006 -1.83857e-006 1.47934e-007 4.05275e-007 12.531 0.0228536 6.1552 15.5697 -7.11914 16.6418 44.3434 -0.504455 24.1123 32.592 12.8886 -4.25064e-006 3.18055e-015 -3.18055e-015 -0 9.54166e-015 1.59028e-015 -0 3.18055e-015 0 -0 3.18055e-015 -3.18055e-015 -0 0.0149813 -9.79949e-005 1.19041e-006 6.36111e-015 -1.27222e-014 -0 3.18055e-015 -3.18055e-015 -0 0.0189715 -0.00118835 -5.3877e-005 -9.54166e-015 7.15625e-015 -3.18055e-015 3.18055e-015 -3.18055e-015 -0 0.0122568 -0.00324376 -0.000674372 3.08973e-031 5.56597e-015 -3.18055e-015 3.18055e-015 -3.18055e-015 -0 9.54166e-015 1.59028e-015 -0 3.18055e-015 0 -0 -4.69328 -14.3971 -3.26707 2.50322 38.862 -3.61396 -4.22026 19.5368 2.80242 1.87962e-007 9.01814e-010 3.97346e-007 4.69057 -14.3974 3.26394 -2.50613 38.8626 3.61251 4.21817 19.5366 -2.8045 -8.82781e-032 -3.18055e-015 -1.59028e-015 
7.48299e-005 -0.99623 5.83637 -180 -83.3313 -180 1.57707 0.401722 0.199738 3.15286 0.808773 0.388359 3.15285 0.808796 0.388356 -0.0538713 3.4162 -0.942707 5.49911e-007 32.7611 1.05711e-006 -8.99082 -0.223303 -0.0106813 -9.76311 -9.1427 -40.2256 -61.0327 4.77085 -75.5587 -47.0496 -1.51241e-006 1.8889e-006 6.11262e-007 -9.28736e-007 1.07282e-006 -5.13189e-007 4.0077e-008 -1.80103e-006 -4.10228e-007 -2.51897e-006 -6.87033e-007 6.11262e-007 -9.28736e-007 1.07282e-006 -0.0146252 -8.93435e-005 -1.9768e-006 -3.11048e-007 -1.64612e-006 1.15217e-007 6.11262e-007 -9.28736e-007 1.07282e-006 -0.0187745 -0.0011782 5.88228e-005 -3.11059e-007 -1.64612e-006 1.15161e-007 6.11262e-007 -9.28736e-007 1.07282e-006 -0.012281 -0.00325283 0.00067212 -3.11048e-007 -1.64612e-006 1.15261e-007 6.11262e-007 -9.28736e-007 1.07282e-006 -5.13189e-007 4.0077e-008 -1.80103e-006 -4.10228e-007 -2.51897e-006 -6.87033e-007 18.1685 0.0329996 8.92504 24.1372 -9.89821 24.1702 64.1437 -0.283787 35.5264 47.2584 18.6885 1.52825e-006 1.98785e-015 -2.38542e-014 3.97569e-016 2.6339e-015 -2.38542e-014 -0 4.77083e-015 -2.62396e-014 -3.97569e-016 1.98785e-015 -2.38542e-014 3.97569e-016 0.0149651 -9.0838e-005 2.08128e-007 -6.95746e-016 0 3.97569e-016 1.98785e-015 -2.38542e-014 3.97569e-016 0.0189931 -0.00119076 -5.89828e-005 -2.92213e-014 -2.38542e-015 3.57812e-015 1.98785e-015 -2.38542e-014 3.97569e-016 0.0122291 -0.00323756 -0.000675558 2.68359e-015 0 3.97569e-016 1.98785e-015 -2.38542e-014 3.97569e-016 2.6339e-015 -2.38542e-014 -0 4.77083e-015 -2.62396e-014 -3.97569e-016 -8.76794 -21.1816 -4.91433 4.74468 55.4115 -6.25855 -5.41851 29.5308 4.50099 5.02699e-008 2.69407e-006 -1.18869e-007 8.76347 -21.1814 4.90966 -4.74784 55.4114 6.25576 5.41618 29.5309 -4.5044 2.05915e-007 3.26912e-006 5.52705e-008 
7.3004e-005 3.8426 6.29088 -180 -89.9981 -180 1.46853 0.375701 0.184909 2.93594 0.75603 0.360141 2.93593 0.756018 0.36014 -0.194637 5.10531 -1.38817 2.06294e-006 28.9373 -2.53883e-007 -8.37082 -0.2079 -0.00995375 -8.9875 -8.49924 -37.5735 -56.6105 6.15478 -71.01 -43.1842 -2.85651e-006 1.12268e-006 2.38542e-015 -3.18055e-015 -0 2.38542e-015 -3.18055e-015 -3.18055e-015 7.95139e-016 4.77083e-015 -0 2.38542e-015 -3.18055e-015 -0 -0.014601 -8.68067e-005 2.54764e-006 2.38542e-015 3.18055e-015 -0 2.38542e-015 -3.18055e-015 -0 -0.0187973 -0.00117774 5.67607e-005 -3.18055e-015 -1.59028e-015 -3.18055e-015 2.38542e-015 -3.18055e-015 -0 -0.0122644 -0.00324735 0.000676129 -1.59028e-015 1.59028e-015 -3.18055e-015 2.38542e-015 -3.18055e-015 -0 2.38542e-015 -3.18055e-015 -3.18055e-015 7.95139e-016 4.77083e-015 -0 16.9158 0.0307715 8.30952 22.6623 -9.46404 22.152 59.1283 0.50876 34.2469 43.9992 17.3996 -7.57932e-007 1.19271e-015 3.18055e-015 -1.59028e-015 3.18055e-015 1.59028e-015 -0 -1.59028e-015 3.18055e-015 3.18055e-015 1.19271e-015 3.18055e-015 -1.59028e-015 0.014987 -8.86932e-005 -1.673e-006 7.95139e-016 0 -1.59028e-015 1.19271e-015 3.18055e-015 -1.59028e-015 0.0190341 -0.00119406 -6.08444e-005 -7.95139e-016 -1.59028e-015 -1.59028e-015 1.19271e-015 3.18055e-015 -1.59028e-015 0.012288 -0.00325357 -0.000673787 -1.98785e-015 6.36111e-015 -0 1.19271e-015 3.18055e-015 -1.59028e-015 3.18055e-015 1.59028e-015 -0 -1.59028e-015 3.18055e-015 3.18055e-015 -7.8316 -19.6703 -4.53012 4.10847 51.7315 -5.53796 -5.0916 27.3141 4.08478 -6.10036e-007 3.26365e-006 8.03746e-008 7.82752 -19.6707 4.52578 -4.11169 51.7321 5.53566 5.08927 27.314 -4.08785 1.02767e-007 -6.20573e-009 -2.80887e-008 
7.3004e-005 3.8426 6.29088 -180 -89.9981 -180 1.46853 0.375701 0.184909 2.93594 0.75603 0.360141 2.93593 0.756018 0.36014 -0.306591 6.80598 -1.83599 -1.03547e-006 27.5585 3.1369e-007 -8.37082 -0.2079 -0.00995375 -9.2679 -8.19468 -37.7242 -56.0206 6.36461 -71.4703 -42.6379 -1.71502e-006 7.9883e-007 -7.88545e-008 -2.23759e-009 8.21701e-008 -5.56597e-015 1.59028e-015 6.36111e-015 -7.36889e-007 2.11565e-007 -1.82371e-007 -7.88545e-008 -2.23759e-009 8.21701e-008 -0.0145763 -8.78044e-005 -1.57261e-007 -8.15756e-007 2.0934e-007 -1.00174e-007 -7.88545e-008 -2.23759e-009 8.21701e-008 -0.0188276 -0.00118071 5.79817e-005 -8.1576e-007 2.09343e-007 -1.00158e-007 -7.88545e-008 -2.23759e-009 8.21701e-008 -0.0121967 -0.00322758 0.00067607 -8.15755e-007 2.0934e-007 -1.00155e-007 -7.88545e-008 -2.23759e-009 8.21701e-008 -5.56597e-015 1.59028e-015 6.36111e-015 -7.36889e-007 2.11565e-007 -1.82371e-007 16.9158 0.0307715 8.30952 23.069 -9.58397 21.8814 58.603 1.19029 35.2895 43.9992 17.3996 9.82886e-007 -2.6498e-007 -1.57378e-007 1.21542e-006 -1.00344e-007 1.291e-007 -8.33753e-007 4.65668e-007 -1.00822e-007 4.52087e-007 -2.6498e-007 -1.57378e-007 1.21542e-006 0.0149767 -9.078e-005 -6.42023e-007 4.63854e-007 -1.00752e-007 4.521e-007 -2.6498e-007 -1.57378e-007 1.21542e-006 0.0189744 -0.00118944 -6.05108e-005 1.00367e-007 -1.28963e-007 8.33774e-007 -2.6498e-007 -1.57378e-007 1.21542e-006 0.012202 -0.00323127 -0.000674634 1.00377e-007 -1.29013e-007 8.33764e-007 -2.6498e-007 -1.57378e-007 1.21542e-006 -1.00344e-007 1.291e-007 -8.33753e-007 4.65668e-007 -1.00822e-007 4.52087e-007 -7.8316 -19.6703 -4.53012 4.10847 51.7315 -5.53796 -5.0916 27.3141 4.08478 -6.10036e-007 3.26365e-006 8.03746e-008 7.82752 -19.6707 4.52578 -4.11169 51.7321 5.53566 5.08927 27.314 -4.08785 1.02767e-007 -6.20573e-009 -2.80887e-008 
7.3004e-005 3.8426 6.29088 -180 -89.9981 -180 1.46853 0.375701 0.184909 2.93594 0.75603 0.360141 2.93593 0.756018 0.36014 -0.405895 8.51338 -2.2837 -1.42126e-006 26.1767 1.69573e-006 -8.37082 -0.2079 -0.00995375 -9.54749 -7.88913 -37.8734 -55.4274 6.57032 -71.9342 -42.0909 2.10653e-006 4.30525e-006 1.59028e-015 -3.18055e-015 -0 -1.59028e-015 -1.59028e-015 3.18055e-015 4.77083e-015 0 3.18055e-015 1.59028e-015 -3.18055e-015 -0 -0.0145908 -9.00059e-005 -2.93505e-006 -1.59028e-015 -3.18055e-015 -3.18055e-015 1.59028e-015 -3.18055e-015 -0 -0.0187826 -0.00117705 5.95673e-005 -4.77083e-015 -1.59028e-015 -0 1.59028e-015 -3.18055e-015 -0 -0.012298 -0.00325497 0.00067778 1.90833e-014 -1.59028e-014 9.54166e-015 1.59028e-015 -3.18055e-015 -0 -1.59028e-015 -1.59028e-015 3.18055e-015 4.77083e-015 0 3.18055e-015 16.9158 0.0307715 8.30952 23.4757 -9.70595 21.6112 58.0623 1.86579 36.3443 43.9992 17.3996 9.34866e-007 -4.37326e-015 1.59028e-015 -0 -3.18055e-015 0 -3.18055e-015 -2.78299e-015 3.18055e-015 1.59028e-015 -4.37326e-015 1.59028e-015 -0 0.0149846 -9.12283e-005 8.52828e-007 1.19271e-015 1.59028e-015 -0 -4.37326e-015 1.59028e-015 -0 0.0190082 -0.00119088 -6.00211e-005 6.36111e-015 -2.8625e-014 1.59028e-015 -4.37326e-015 1.59028e-015 -0 0.0123091 -0.00325982 -0.000681442 9.54166e-015 -1.59028e-015 -3.18055e-015 -4.37326e-015 1.59028e-015 -0 -3.18055e-015 0 -3.18055e-015 -2.78299e-015 3.18055e-015 1.59028e-015 -7.8316 -19.6703 -4.53012 4.10847 51.7315 -5.53796 -5.0916 27.3141 4.08478 -6.10036e-007 3.26365e-006 8.03746e-008 7.82752 -19.6707 4.52578 -4.11169 51.7321 5.53566 5.08927 27.314 -4.08785 1.02767e-007 -6.20573e-009 -2.80887e-008 
